<?xml version="1.0" standalone="no"?>
<!DOCTYPE svg PUBLIC "-//W3C//DTD SVG 20010904//EN"
 "http://www.w3.org/TR/2001/REC-SVG-20010904/DTD/svg10.dtd">
<svg version="1.0" xmlns="http://www.w3.org/2000/svg"
 width="500.000000pt" height="500.000000pt" viewBox="0 0 500.000000 500.000000"
 preserveAspectRatio="xMidYMid meet">
<metadata>
Created by potrace 1.14, written by Peter Selinger 2001-2017
</metadata>
<g transform="translate(0.000000,500.000000) scale(0.100000,-0.100000)"
fill="#000000" stroke="none">
<path d="M2330 4997 c-3 -2 -39 -7 -80 -11 -438 -38 -895 -219 -1265 -499
-108 -83 -142 -113 -270 -243 -465 -470 -726 -1122 -714 -1784 2 -79 6 -169
10 -200 4 -30 10 -77 14 -103 20 -161 83 -403 147 -565 295 -756 948 -1327
1738 -1521 96 -23 107 -25 245 -47 115 -18 454 -27 565 -14 150 17 174 20 298
46 279 57 560 171 807 325 173 109 303 214 461 375 297 302 521 692 625 1090
66 254 84 403 83 689 -3 558 -192 1087 -550 1535 -86 108 -264 285 -374 373
-207 166 -487 325 -715 406 -149 53 -353 106 -465 121 -47 6 -96 13 -110 16
-34 7 -444 18 -450 11z"/>
</g>
</svg>
